<svg width="607" height="694" viewBox="0 0 607 694" fill="none" xmlns="http://www.w3.org/2000/svg">
<path d="M438.947 255.794L564.418 294.374C566.177 294.77 567.997 294.815 569.773 294.506C571.549 294.198 573.247 293.542 574.77 292.577C576.293 291.611 577.61 290.355 578.646 288.88C579.683 287.404 580.418 285.739 580.811 283.98L605.072 175.161C605.865 171.608 605.215 167.885 603.264 164.811C601.312 161.737 598.22 159.563 594.667 158.769L465.754 137.555C461.167 136.8 456.466 137.83 452.615 140.431C448.763 143.033 446.053 147.01 445.041 151.546L426.537 234.474C425.547 238.937 426.275 243.609 428.574 247.56C430.874 251.511 434.577 254.45 438.947 255.794V255.794Z" stroke="#DADEEB" stroke-width="1.37431" stroke-miterlimit="10" stroke-linecap="round"/>
<path d="M396.905 503.892C413.905 473.778 444.154 411.061 452.206 334.093" stroke="#DADEEB" stroke-width="1.37431" stroke-miterlimit="10" stroke-linecap="round"/>
<path d="M170.156 477.424C162.76 455.525 156.319 430.174 155.345 406.328" stroke="#DADEEB" stroke-width="1.37431" stroke-miterlimit="10" stroke-linecap="round"/>
<path d="M145.752 489.071C145.752 489.071 141.981 453.624 120.073 429.556L94.7707 449.092C94.7707 449.092 128.887 457.462 145.752 489.071Z" fill="#FFD550"/>
<path d="M89.8541 509.834C47.2776 512.886 15.1007 546.879 17.8815 585.673C20.6624 624.468 57.3586 653.524 99.9351 650.472C142.512 647.42 174.688 613.427 171.908 574.633C169.127 535.838 132.431 506.782 89.8541 509.834Z" stroke="#DADEEB"/>
<path d="M124.42 332.039C124.42 332.039 108.799 333.003 101.529 324.681C97.8066 320.429 88.646 311.452 77.0555 306.302C65.4649 301.153 78.1451 321.972 77.7015 323.659C77.123 325.916 55.7065 311.288 52.4858 315.897C49.2651 320.506 45.8227 333.013 60.3157 345.568C74.8087 358.122 120.293 376.212 132.964 374.737C145.634 373.261 140.553 343.928 124.42 332.039Z" fill="#F3ABAA"/>
<path d="M79.7559 324.981L88.3861 333.129" stroke="#0D0F44" stroke-width="0.916209" stroke-miterlimit="10" stroke-linecap="round"/>
<path d="M448.782 233.664C448.782 233.664 452.099 226.722 452.639 213.955C453.141 201.795 456.13 178.942 463.488 178.942C466.969 178.942 474.355 182.018 473.747 203.772C473.747 203.772 475.387 212.595 490.564 196.173C505.742 179.752 511.711 180.803 516.204 184.265C524.169 190.417 537.139 206.231 526.262 229.209C515.385 252.188 478.868 270.673 478.868 270.673L448.782 233.664Z" fill="#F3ABAA"/>
<path d="M515.751 188.286C515.751 188.286 504.411 202.027 497.97 205.643" stroke="#0D0F44" stroke-width="0.916209" stroke-miterlimit="10" stroke-linecap="round"/>
<path d="M520.487 196.974C520.487 196.974 509.156 210.715 502.706 214.331" stroke="#0D0F44" stroke-width="0.916209" stroke-miterlimit="10" stroke-linecap="round"/>
<path d="M524.64 207.33C524.64 207.33 513.31 221.052 506.859 224.687" stroke="#0D0F44" stroke-width="0.916209" stroke-miterlimit="10" stroke-linecap="round"/>
<path d="M524.64 220.609C521.078 224.887 517.296 228.978 513.31 232.864" stroke="#0D0F44" stroke-width="0.916209" stroke-miterlimit="10" stroke-linecap="round"/>
<path d="M425.914 557.36L320.461 482.408C317.21 480.097 313.487 478.536 309.56 477.839C305.633 477.142 301.6 477.326 297.752 478.377L133.826 522.994C130.997 523.76 128.418 525.255 126.349 527.331C124.279 529.406 122.79 531.988 122.032 534.819C121.273 537.651 121.271 540.631 122.026 543.463C122.781 546.295 124.266 548.88 126.334 550.958L260.445 686.39C264.904 690.905 270.881 693.603 277.218 693.96C283.554 694.316 289.797 692.305 294.734 688.318L426.695 581.351C428.497 579.885 429.936 578.022 430.9 575.908C431.863 573.793 432.326 571.485 432.25 569.162C432.174 566.84 431.563 564.566 430.464 562.519C429.365 560.472 427.808 558.706 425.914 557.36Z" fill="#0D0F44"/>
<path d="M122.167 520.459L121.454 541.865L131.926 550.785L122.167 520.459Z" fill="#0D0F44"/>
<path d="M432.247 555.692V571.767L416.124 580.185L432.247 555.692Z" fill="#0D0F44"/>
<path d="M425.91 543.437L320.457 468.474C317.206 466.163 313.483 464.603 309.556 463.906C305.628 463.209 301.596 463.393 297.748 464.444L133.822 509.06C130.993 509.826 128.414 511.322 126.345 513.397C124.275 515.472 122.786 518.055 122.028 520.886C121.269 523.717 121.267 526.698 122.022 529.53C122.777 532.362 124.262 534.946 126.33 537.024L260.44 672.456C264.906 676.965 270.887 679.654 277.223 680.002C283.559 680.349 289.799 678.33 294.73 674.337L426.691 567.418C428.491 565.952 429.929 564.089 430.891 561.976C431.854 559.862 432.315 557.555 432.24 555.234C432.164 552.913 431.553 550.641 430.455 548.594C429.357 546.548 427.802 544.783 425.91 543.437Z" fill="#22319E"/>
<path d="M152.465 539.926L200.678 588.593L202.279 581.843C204.738 570.937 212.414 536.301 219.106 500.063L158.781 516.456C156.404 517.095 154.237 518.348 152.496 520.088C150.756 521.828 149.503 523.995 148.864 526.372C148.224 528.749 148.22 531.252 148.852 533.631C149.484 536.01 150.73 538.18 152.465 539.926Z" fill="#DADEEB"/>
<path d="M341.04 613.973L337.983 619.315L404.47 565.441C405.981 564.211 407.187 562.649 407.994 560.876C408.802 559.102 409.188 557.166 409.124 555.219C409.06 553.272 408.546 551.366 407.623 549.65C406.7 547.934 405.393 546.454 403.804 545.327L372.716 523.235C365.576 554.568 354.951 585.004 341.04 613.973Z" fill="#DADEEB"/>
<path d="M269.554 97.2876C269.554 97.2876 239.353 92.2059 233.635 147.999C229.247 190.812 225.178 197.475 223.925 201.467C222.671 205.46 195.7 235.853 203.434 267.559C203.434 267.559 215.468 308.058 252.891 314.856C290.315 321.654 294.731 230.367 294.731 230.367C294.731 230.367 299.822 112.215 269.554 97.2876Z" fill="#22319E"/>
<path d="M478.521 477.412C460.286 477.412 445.504 462.63 445.504 444.396C445.504 426.161 460.286 411.379 478.521 411.379C496.755 411.379 511.538 426.161 511.538 444.396C511.538 462.63 496.755 477.412 478.521 477.412Z" fill="#22319E"/>
<path d="M466.813 443.769L479.532 460.162C479.745 460.444 480.031 460.661 480.36 460.791C480.689 460.921 481.047 460.958 481.395 460.899C481.743 460.839 482.068 460.685 482.335 460.453C482.601 460.221 482.799 459.92 482.906 459.583L490.167 437.579C490.281 437.244 490.3 436.885 490.223 436.54C490.146 436.195 489.976 435.878 489.731 435.624C489.487 435.369 489.177 435.187 488.835 435.096C488.494 435.005 488.134 435.01 487.795 435.11L467.825 440.684C467.512 440.765 467.224 440.923 466.988 441.144C466.753 441.365 466.576 441.642 466.475 441.95C466.374 442.257 466.352 442.585 466.411 442.903C466.47 443.221 466.608 443.519 466.813 443.769Z" fill="white"/>
<path d="M9.55984 232.006L98.4078 259.912C99.8843 260.376 101.438 260.544 102.979 260.407C104.521 260.27 106.02 259.831 107.392 259.115C108.764 258.399 109.981 257.419 110.974 256.232C111.967 255.045 112.717 253.675 113.18 252.198L130.942 195.644C131.842 192.779 131.615 189.679 130.307 186.977C128.999 184.274 126.708 182.173 123.903 181.102L36.087 147.546C34.3743 147.007 32.5723 146.812 30.7841 146.97C28.9959 147.129 27.2564 147.638 25.6651 148.469C24.0738 149.3 22.6618 150.437 21.5099 151.814C20.358 153.191 19.4888 154.781 18.9518 156.494L0.630661 214.861C-0.45752 218.319 -0.12822 222.067 1.54614 225.282C3.22052 228.497 6.10294 230.916 9.55984 232.006Z" fill="#22319E"/>
<path d="M50.5223 211.187L62.7975 216.172L78.4283 204.022L76.6155 190.908C76.5207 190.245 76.2548 189.618 75.8439 189.089C75.4331 188.559 74.8914 188.146 74.2723 187.89L45.9999 176.396C45.763 176.3 45.5051 176.269 45.2521 176.305C44.9992 176.34 44.7601 176.442 44.5588 176.599C44.3576 176.756 44.2012 176.964 44.1055 177.201C44.0098 177.438 43.978 177.695 44.0135 177.948L48.1888 208.178C48.2843 208.839 48.5494 209.463 48.9584 209.991C49.3675 210.518 49.9063 210.93 50.5223 211.187V211.187Z" stroke="white" stroke-width="1.83242" stroke-miterlimit="10" stroke-linecap="round"/>
<path d="M62.7181 216.231L72.8526 229.258C73.8843 230.579 76.0829 230.589 77.7704 229.258L87.3553 221.795C89.0427 220.483 89.5731 218.343 88.5509 217.022L78.4261 204.023L62.7181 216.231Z" stroke="white" stroke-width="1.83242" stroke-miterlimit="10" stroke-linecap="round"/>
<path d="M44.55 176.599L59.2069 195.45" stroke="white" stroke-width="1.83242" stroke-miterlimit="10" stroke-linecap="round"/>
<path d="M62.4873 205.141C59.505 205.141 57.0874 202.724 57.0874 199.742C57.0874 196.759 59.505 194.342 62.4873 194.342C65.4696 194.342 67.8873 196.759 67.8873 199.742C67.8873 202.724 65.4696 205.141 62.4873 205.141Z" stroke="white" stroke-width="1.83242" stroke-miterlimit="10" stroke-linecap="round"/>
<path d="M200.659 588.594L264.995 653.566C268.741 657.348 273.759 659.604 279.075 659.894C284.39 660.185 289.624 658.49 293.759 655.138L337.981 619.315L341.038 613.973C354.949 585.004 365.574 554.568 372.714 523.235C387.352 460.143 384.96 411.833 384.96 411.833L230.224 412.045C230.812 430.54 225.402 466.044 219.086 500.064C212.394 536.301 204.719 570.938 202.26 581.844L200.659 588.594Z" fill="#0D0F44"/>
<path d="M324.989 481.771L311.123 487.074C311.123 487.074 310.708 531.055 259.592 643.836" stroke="#DADEEB" stroke-width="0.916209" stroke-miterlimit="10" stroke-linecap="round"/>
<path d="M310.931 209.529C310.931 209.529 352.395 211.882 367.823 241.938C386.752 278.581 409.48 274.126 441.214 236.288C442.385 234.886 444.014 233.941 445.812 233.62C447.611 233.299 449.465 233.622 451.049 234.533C462.813 241.283 487.258 258.283 475.879 277.346C461.126 302.051 416.499 353.688 378.488 350.737C378.488 350.737 385.305 393.763 384.881 411.833C384.881 411.833 361.497 441.379 303.265 440.106C245.033 438.833 230.144 412.045 230.144 412.045C230.144 412.045 229.508 367.834 227.589 356.359C227.589 356.359 189.269 385.007 132.888 374.757C132.888 374.757 140.409 348.789 124.344 332.04C124.344 332.04 180.05 316.66 186.193 308.116C192.335 299.573 209.268 251.986 212.624 244.87C217.011 235.545 229.98 219.914 254.916 212.393C279.853 204.872 310.931 209.529 310.931 209.529Z" fill="#FF2633"/>
<path d="M358.758 247.878C358.758 247.878 371.563 284.674 377.908 344.257" stroke="#DADEEB" stroke-width="0.916209" stroke-miterlimit="10" stroke-linecap="round"/>
<path d="M267.953 270.664C267.953 270.664 256.848 307.826 249.006 329.419C246.454 336.446 244.248 341.823 242.882 343.736C237.318 351.527 227.675 356.358 227.675 356.358" stroke="white" stroke-width="0.916209" stroke-miterlimit="10" stroke-linecap="round"/>
<path d="M134.726 329.06C134.726 329.06 151.263 337.642 144.138 372.028" stroke="white" stroke-width="0.916209" stroke-miterlimit="10" stroke-linecap="round"/>
<path d="M436.846 241.388C436.846 241.388 457.548 251.687 467.567 270.664" stroke="white" stroke-width="0.916209" stroke-miterlimit="10" stroke-linecap="round"/>
<path d="M321.643 107.5C321.643 107.5 339.695 115.696 326.928 144.846L310.969 116.689L321.643 107.5Z" fill="#22319E"/>
<path d="M263.479 164.786C263.479 164.786 272.717 211.708 272.717 215.516C272.717 219.325 298.077 225.342 312.329 213.588C312.329 213.588 301.722 182.914 299.852 175.239C297.981 167.563 276.738 159.058 263.479 164.786Z" fill="#F3ABAA"/>
<path d="M263.479 164.786L302.281 183.483C303.641 187.765 305.319 192.866 306.958 197.687C306.958 197.687 272.736 203.097 263.479 164.786Z" fill="#0D0F44"/>
<path d="M258.357 146.494C258.357 166.561 273.728 188.276 292.695 188.276C315.78 188.276 328.47 174.593 327.043 146.494C326.02 126.563 311.662 110.18 292.695 110.18C273.728 110.18 258.357 126.437 258.357 146.494Z" fill="#F3ABAA"/>
<path d="M274.295 147.256C294.728 149.232 321.747 133.428 321.641 107.499C321.535 81.5694 297.766 80.6051 294.169 80.6051C290.572 80.6051 259.147 85.3493 249.514 116.765C239.88 148.181 265.733 146.426 274.295 147.256Z" fill="#22319E"/>
<path d="M255.981 162.103C248.731 157.917 244.928 150.931 247.487 146.499C250.045 142.067 257.997 141.867 265.247 146.053C272.498 150.239 276.301 157.225 273.742 161.657C271.183 166.089 263.231 166.289 255.981 162.103Z" fill="#F3ABAA"/>
<path d="M293.233 174.4C293.233 174.4 285.316 175.412 282.086 168.479" stroke="#0D0F44" stroke-width="0.916209" stroke-miterlimit="10" stroke-linecap="round"/>
<path d="M263.518 155.674L252.737 151.016" stroke="#0D0F44" stroke-width="0.916209" stroke-miterlimit="10" stroke-linecap="round"/>
<path d="M308.327 150.698L310.554 160.196C310.619 160.471 310.625 160.757 310.574 161.036C310.523 161.314 310.415 161.579 310.256 161.813C310.098 162.048 309.892 162.247 309.653 162.398C309.414 162.55 309.146 162.65 308.867 162.693L306.581 163.06" stroke="#0D0F44" stroke-width="0.916209" stroke-miterlimit="10" stroke-linecap="round"/>
<path d="M314.578 146.277C314.248 143.528 315.129 141.161 316.547 140.991C317.964 140.821 319.38 142.912 319.71 145.662C320.039 148.411 319.158 150.778 317.741 150.948C316.324 151.118 314.908 149.027 314.578 146.277Z" fill="#0D0F44"/>
<path d="M294.725 149.69C294.395 146.941 295.276 144.574 296.693 144.404C298.111 144.234 299.527 146.325 299.856 149.075C300.186 151.824 299.305 154.191 297.888 154.361C296.471 154.531 295.055 152.44 294.725 149.69Z" fill="#0D0F44"/>
<path d="M420.893 31.4663C422.282 24.7244 425.412 18.4636 429.971 13.307C434.531 8.15034 440.362 4.27763 446.883 2.07418C453.405 -0.129272 460.389 -0.586645 467.142 0.747568C473.895 2.08178 480.181 5.16107 485.374 9.67903C490.568 14.197 494.487 19.9961 496.744 26.4994C499 33.0027 499.514 39.9834 498.234 46.747C496.954 53.5105 493.926 59.8211 489.45 65.0508C484.974 70.2805 479.207 74.247 472.722 76.5557C471.259 77.0882 469.958 77.9893 468.944 79.1717C467.931 80.3541 467.239 81.7779 466.937 83.3056L465.973 87.828C465.543 89.9043 464.709 91.8756 463.517 93.6293C462.325 95.383 460.8 96.8848 459.028 98.0489C457.256 99.213 455.272 100.017 453.189 100.414C451.106 100.811 448.966 100.794 446.89 100.364C444.813 99.934 442.842 99.0996 441.088 97.908C439.335 96.7164 437.833 95.191 436.669 93.4189C435.505 91.6468 434.701 89.6627 434.304 87.58C433.907 85.4973 433.924 83.3567 434.354 81.2806L435.318 76.7968C435.641 75.2836 435.572 73.713 435.116 72.2344C434.66 70.7558 433.834 69.4184 432.715 68.3497C427.731 63.7431 424.023 57.9259 421.952 51.4632C419.88 45.0004 419.516 38.1118 420.893 31.4663Z" fill="#FFD550"/>
<path d="M458.56 78.9089L435.514 74.1454" stroke="#FF2633" stroke-width="2.29052" stroke-miterlimit="10" stroke-linecap="round"/>
<path d="M455.368 8.17023C455.368 8.17023 439.062 10.6195 434.347 24.9486" stroke="white" stroke-width="1.83242" stroke-miterlimit="10" stroke-linecap="round"/>
<path d="M503.396 14.1577C503.396 14.1577 516.51 28.9399 509.288 51.2243" stroke="#FF2633" stroke-width="2.29052" stroke-miterlimit="10" stroke-linecap="round"/>
<path d="M515.943 4.0719C515.943 4.0719 535.228 25.8355 524.621 58.6497" stroke="#FF2633" stroke-width="2.29052" stroke-miterlimit="10" stroke-linecap="round"/>
</svg>
