<svg width="285" height="49" viewBox="0 0 285 49" fill="none" xmlns="http://www.w3.org/2000/svg">
    <path
        d="M72.632 38.032C73.144 37.968 73.672 37.824 74.216 37.6C74.76 37.344 75.144 37.088 75.368 36.832V11.152C74.6 10.48 73.624 10.016 72.44 9.76L72.584 7.984H95.912L96.104 15.904C95.368 16.128 94.696 16.24 94.088 16.24C93.768 16.24 93.256 16.176 92.552 16.048C92.296 14.832 92.008 13.84 91.688 13.072C91.368 12.272 90.968 11.552 90.488 10.912H82.424V22.288L86.888 21.952C87.464 21.888 87.992 21.568 88.472 20.992C88.984 20.416 89.352 19.664 89.576 18.736H92.072V28.672H89.576C89.128 27.392 88.696 26.496 88.28 25.984C87.864 25.472 87.384 25.184 86.84 25.12L82.424 24.736V37.024H90.824C91.848 35.488 92.6 33.456 93.08 30.928C93.752 30.832 94.408 30.784 95.048 30.784C95.592 30.784 96.12 30.832 96.632 30.928L96.152 40H72.44L72.632 38.032ZM107.61 40.336C104.762 40.336 102.57 39.376 101.034 37.456C99.5301 35.536 98.7781 32.72 98.7781 29.008C98.7781 24.912 99.6901 21.792 101.514 19.648C103.37 17.472 105.994 16.384 109.386 16.384C110.346 16.384 111.178 16.48 111.882 16.672C112.618 16.864 113.37 17.152 114.138 17.536V13.216C114.138 12.032 113.898 11.232 113.418 10.816C112.938 10.368 112.058 10.112 110.778 10.048L110.922 8.176C111.498 8.048 112.394 7.904 113.61 7.744C113.93 7.68 114.89 7.52 116.49 7.264C118.122 7.008 119.322 6.768 120.09 6.544L120.906 7.024V37.024C121.194 37.28 121.594 37.536 122.106 37.792C122.65 38.016 123.21 38.192 123.786 38.32L123.594 40H114.954L114.33 36.88C112.954 39.184 110.714 40.336 107.61 40.336ZM109.77 37.456C111.178 37.456 112.25 36.736 112.986 35.296C113.754 33.824 114.138 31.648 114.138 28.768V19.888C113.786 19.632 113.322 19.424 112.746 19.264C112.202 19.072 111.626 18.976 111.018 18.976C107.53 18.976 105.786 22.32 105.786 29.008C105.786 31.888 106.106 34.016 106.746 35.392C107.386 36.768 108.394 37.456 109.77 37.456ZM135.945 40.336C133.769 40.336 132.025 39.68 130.713 38.368C129.401 37.056 128.745 35.248 128.745 32.944V23.008C128.745 21.856 128.521 21.072 128.073 20.656C127.657 20.208 126.889 19.952 125.769 19.888L125.913 18.016C126.393 17.92 127.257 17.776 128.505 17.584C131.929 17.008 133.993 16.608 134.697 16.384L135.513 16.816V32.512C135.513 35.584 136.505 37.12 138.489 37.12C139.321 37.12 140.121 36.88 140.889 36.4C141.689 35.92 142.329 35.28 142.809 34.48V23.008C142.809 21.856 142.585 21.072 142.137 20.656C141.689 20.208 140.905 19.952 139.785 19.888L139.929 18.016C140.409 17.92 141.273 17.776 142.521 17.584C145.945 17.008 148.009 16.608 148.713 16.384L149.577 16.816V37.024C149.865 37.28 150.329 37.536 150.969 37.792C151.609 38.016 152.249 38.192 152.889 38.32L152.745 40H143.577L143.097 36.928C142.233 37.984 141.177 38.816 139.929 39.424C138.713 40.032 137.385 40.336 135.945 40.336ZM157.659 50.464C156.027 50.464 154.635 50.112 153.483 49.408C152.299 48.704 151.707 47.712 151.707 46.432C151.707 45.536 151.995 44.816 152.571 44.272C153.115 43.728 153.835 43.456 154.731 43.456C155.147 43.456 155.547 43.552 155.931 43.744C156.347 43.968 156.683 44.272 156.939 44.656C156.459 45.136 156.219 45.776 156.219 46.576C156.219 46.992 156.315 47.344 156.507 47.632C156.731 47.92 157.019 48.064 157.371 48.064C157.819 48.064 158.187 47.776 158.475 47.2C158.763 46.656 158.907 45.984 158.907 45.184C158.907 44.192 158.811 42.96 158.619 41.488C158.427 39.888 158.331 38.4 158.331 37.024V23.008C158.331 21.856 158.107 21.072 157.659 20.656C157.243 20.208 156.475 19.952 155.355 19.888L155.499 18.016C155.979 17.92 156.843 17.776 158.091 17.584C161.515 17.008 163.579 16.608 164.283 16.384L165.099 16.816V41.584C165.099 44.304 164.683 46.352 163.851 47.728C163.307 48.624 162.459 49.296 161.307 49.744C160.187 50.224 158.971 50.464 157.659 50.464ZM160.395 13.504C159.115 13.504 158.155 13.216 157.515 12.64C156.875 12.064 156.555 11.232 156.555 10.144C156.555 7.904 157.835 6.784 160.395 6.784C161.643 6.784 162.587 7.072 163.227 7.648C163.867 8.224 164.187 9.056 164.187 10.144C164.187 11.232 163.867 12.064 163.227 12.64C162.587 13.216 161.643 13.504 160.395 13.504ZM176.373 40.336C174.165 40.336 172.469 39.824 171.285 38.8C170.101 37.776 169.509 36.288 169.509 34.336C169.509 32.256 170.309 30.624 171.909 29.44C173.509 28.224 175.861 27.504 178.965 27.28L183.189 26.992V24.208C183.189 21.968 182.917 20.416 182.373 19.552C181.861 18.688 180.949 18.256 179.637 18.256C178.741 18.256 177.989 18.496 177.381 18.976C176.805 19.424 176.517 20 176.517 20.704C176.517 21.504 176.869 22.176 177.573 22.72C177.413 23.52 177.029 24.16 176.421 24.64C175.813 25.12 175.077 25.36 174.213 25.36C173.157 25.36 172.277 25.024 171.573 24.352C170.869 23.68 170.517 22.848 170.517 21.856C170.517 20.16 171.317 18.832 172.917 17.872C174.549 16.88 176.789 16.384 179.637 16.384C183.029 16.384 185.589 17.024 187.317 18.304C189.077 19.584 189.957 21.472 189.957 23.968V37.024C190.181 37.28 190.565 37.536 191.109 37.792C191.653 38.016 192.229 38.192 192.837 38.32L192.645 40H184.005L183.525 37.264C182.469 38.32 181.365 39.104 180.213 39.616C179.061 40.096 177.781 40.336 176.373 40.336ZM178.725 37.216C180.197 37.216 181.685 36.336 183.189 34.576V29.344L180.789 29.536C179.029 29.664 177.765 30.064 176.997 30.736C176.229 31.408 175.845 32.432 175.845 33.808C175.845 34.896 176.085 35.744 176.565 36.352C177.077 36.928 177.797 37.216 178.725 37.216ZM195.448 38.032C196.056 37.904 196.52 37.76 196.84 37.6C197.192 37.44 197.576 37.184 197.992 36.832V23.008C197.992 21.856 197.768 21.072 197.32 20.656C196.872 20.208 196.088 19.952 194.968 19.888L195.112 18.016L196.696 17.728C200.088 17.152 202.296 16.704 203.32 16.384L204.184 16.816L204.568 19.984C205.304 18.896 206.2 18.032 207.256 17.392C208.312 16.752 209.48 16.432 210.76 16.432C212.008 16.432 213.08 16.864 213.976 17.728C214.904 18.56 215.368 19.6 215.368 20.848C215.368 22 215.032 22.912 214.36 23.584C213.72 24.224 212.968 24.544 212.104 24.544C211.112 24.544 210.328 24.144 209.752 23.344C210.2 22.8 210.424 22.272 210.424 21.76C210.424 21.248 210.2 20.832 209.752 20.512C209.336 20.192 208.856 20.032 208.312 20.032C207.64 20.032 206.968 20.32 206.296 20.896C205.656 21.44 205.144 22.16 204.76 23.056V36.832C205.496 37.408 206.456 37.84 207.64 38.128L207.448 40H195.304L195.448 38.032Z"
        fill="#D9ECFF" />
    <g filter="url(#filter0_d_5_1584)">
        <rect width="48.96" height="48.96" rx="12.24" fill="#7F56D9" />
        <g clip-path="url(#clip0_5_1584)">
            <path
                d="M27.3399 34.41H21.0399L20.2899 32.385H8.9649V13.11C8.9649 12.21 9.7149 11.46 10.6149 11.46H38.6649C39.5649 11.46 40.3149 12.21 40.3149 13.11V32.46H28.8399L27.3399 34.41ZM21.8649 33.285H26.8149L28.3149 31.26H39.1899V13.11C39.1899 12.81 38.9649 12.585 38.6649 12.585H10.6149C10.3149 12.585 10.0899 12.81 10.0899 13.11V31.335H21.1149L21.8649 33.285Z"
                fill="white" />
            <path
                d="M37.2399 36.6601H12.0399C9.33992 36.6601 7.16492 34.4851 7.16492 31.7851V31.1851H21.0399L21.7899 33.2101H26.7399L28.2399 31.1851H42.0399V31.7851C42.1149 34.4851 39.8649 36.6601 37.2399 36.6601ZM8.36492 32.3851C8.66492 34.1851 10.1649 35.5351 12.0399 35.5351H37.1649C39.0399 35.5351 40.6149 34.1851 40.8399 32.3851H28.8399L27.3399 34.4101H21.0399L20.2899 32.3851H8.36492Z"
                fill="white" />
            <path d="M19.1649 15.4351H13.3899V20.4601H19.1649V15.4351Z" fill="white" />
            <path d="M19.6899 20.985H12.7899V14.835H19.6899V20.985ZM13.9149 19.86H18.5649V15.96H13.9149V19.86Z"
                fill="white" />
            <path d="M19.1649 23.385H13.3899V28.41H19.1649V23.385Z" fill="white" />
            <path d="M19.6899 29.0101H12.7899V22.8601H19.6899V29.0101ZM13.9149 27.8851H18.5649V23.9851H13.9149V27.8851Z"
                fill="white" />
            <path d="M36.1899 17.3101H22.7649V18.4351H36.1899V17.3101Z" fill="white" />
            <path d="M36.1899 25.335H22.7649V26.46H36.1899V25.335Z" fill="white" />
        </g>
    </g>
    <defs>
        <filter id="filter0_d_5_1584" x="-38.25" y="-19.89" width="125.46" height="125.46" filterUnits="userSpaceOnUse"
            color-interpolation-filters="sRGB">
            <feFlood flood-opacity="0" result="BackgroundImageFix" />
            <feColorMatrix in="SourceAlpha" type="matrix" values="0 0 0 0 0 0 0 0 0 0 0 0 0 0 0 0 0 0 127 0"
                result="hardAlpha" />
            <feOffset dy="18.36" />
            <feGaussianBlur stdDeviation="19.125" />
            <feComposite in2="hardAlpha" operator="out" />
            <feColorMatrix type="matrix" values="0 0 0 0 0.0509804 0 0 0 0 0.0470588 0 0 0 0 0.219608 0 0 0 0.15 0" />
            <feBlend mode="normal" in2="BackgroundImageFix" result="effect1_dropShadow_5_1584" />
            <feBlend mode="normal" in="SourceGraphic" in2="effect1_dropShadow_5_1584" result="shape" />
        </filter>
        <clipPath id="clip0_5_1584">
            <rect width="36" height="36" fill="white" transform="translate(6.63989 6.06006)" />
        </clipPath>
    </defs>
</svg>