<svg width="324" height="126" viewBox="0 0 324 126" fill="none" xmlns="http://www.w3.org/2000/svg">
<path d="M111.632 58.032C112.144 57.968 112.672 57.824 113.216 57.6C113.76 57.344 114.144 57.088 114.368 56.832V31.152C113.6 30.48 112.624 30.016 111.44 29.76L111.584 27.984H134.912L135.104 35.904C134.368 36.128 133.696 36.24 133.088 36.24C132.768 36.24 132.256 36.176 131.552 36.048C131.296 34.832 131.008 33.84 130.688 33.072C130.368 32.272 129.968 31.552 129.488 30.912H121.424V42.288L125.888 41.952C126.464 41.888 126.992 41.568 127.472 40.992C127.984 40.416 128.352 39.664 128.576 38.736H131.072V48.672H128.576C128.128 47.392 127.696 46.496 127.28 45.984C126.864 45.472 126.384 45.184 125.84 45.12L121.424 44.736V57.024H129.824C130.848 55.488 131.6 53.456 132.08 50.928C132.752 50.832 133.408 50.784 134.048 50.784C134.592 50.784 135.12 50.832 135.632 50.928L135.152 60H111.44L111.632 58.032ZM146.61 60.336C143.762 60.336 141.57 59.376 140.034 57.456C138.53 55.536 137.778 52.72 137.778 49.008C137.778 44.912 138.69 41.792 140.514 39.648C142.37 37.472 144.994 36.384 148.386 36.384C149.346 36.384 150.178 36.48 150.882 36.672C151.618 36.864 152.37 37.152 153.138 37.536V33.216C153.138 32.032 152.898 31.232 152.418 30.816C151.938 30.368 151.058 30.112 149.778 30.048L149.922 28.176C150.498 28.048 151.394 27.904 152.61 27.744C152.93 27.68 153.89 27.52 155.49 27.264C157.122 27.008 158.322 26.768 159.09 26.544L159.906 27.024V57.024C160.194 57.28 160.594 57.536 161.106 57.792C161.65 58.016 162.21 58.192 162.786 58.32L162.594 60H153.954L153.33 56.88C151.954 59.184 149.714 60.336 146.61 60.336ZM148.77 57.456C150.178 57.456 151.25 56.736 151.986 55.296C152.754 53.824 153.138 51.648 153.138 48.768V39.888C152.786 39.632 152.322 39.424 151.746 39.264C151.202 39.072 150.626 38.976 150.018 38.976C146.53 38.976 144.786 42.32 144.786 49.008C144.786 51.888 145.106 54.016 145.746 55.392C146.386 56.768 147.394 57.456 148.77 57.456ZM174.945 60.336C172.769 60.336 171.025 59.68 169.713 58.368C168.401 57.056 167.745 55.248 167.745 52.944V43.008C167.745 41.856 167.521 41.072 167.073 40.656C166.657 40.208 165.889 39.952 164.769 39.888L164.913 38.016C165.393 37.92 166.257 37.776 167.505 37.584C170.929 37.008 172.993 36.608 173.697 36.384L174.513 36.816V52.512C174.513 55.584 175.505 57.12 177.489 57.12C178.321 57.12 179.121 56.88 179.889 56.4C180.689 55.92 181.329 55.28 181.809 54.48V43.008C181.809 41.856 181.585 41.072 181.137 40.656C180.689 40.208 179.905 39.952 178.785 39.888L178.929 38.016C179.409 37.92 180.273 37.776 181.521 37.584C184.945 37.008 187.009 36.608 187.713 36.384L188.577 36.816V57.024C188.865 57.28 189.329 57.536 189.969 57.792C190.609 58.016 191.249 58.192 191.889 58.32L191.745 60H182.577L182.097 56.928C181.233 57.984 180.177 58.816 178.929 59.424C177.713 60.032 176.385 60.336 174.945 60.336ZM196.659 70.464C195.027 70.464 193.635 70.112 192.483 69.408C191.299 68.704 190.707 67.712 190.707 66.432C190.707 65.536 190.995 64.816 191.571 64.272C192.115 63.728 192.835 63.456 193.731 63.456C194.147 63.456 194.547 63.552 194.931 63.744C195.347 63.968 195.683 64.272 195.939 64.656C195.459 65.136 195.219 65.776 195.219 66.576C195.219 66.992 195.315 67.344 195.507 67.632C195.731 67.92 196.019 68.064 196.371 68.064C196.819 68.064 197.187 67.776 197.475 67.2C197.763 66.656 197.907 65.984 197.907 65.184C197.907 64.192 197.811 62.96 197.619 61.488C197.427 59.888 197.331 58.4 197.331 57.024V43.008C197.331 41.856 197.107 41.072 196.659 40.656C196.243 40.208 195.475 39.952 194.355 39.888L194.499 38.016C194.979 37.92 195.843 37.776 197.091 37.584C200.515 37.008 202.579 36.608 203.283 36.384L204.099 36.816V61.584C204.099 64.304 203.683 66.352 202.851 67.728C202.307 68.624 201.459 69.296 200.307 69.744C199.187 70.224 197.971 70.464 196.659 70.464ZM199.395 33.504C198.115 33.504 197.155 33.216 196.515 32.64C195.875 32.064 195.555 31.232 195.555 30.144C195.555 27.904 196.835 26.784 199.395 26.784C200.643 26.784 201.587 27.072 202.227 27.648C202.867 28.224 203.187 29.056 203.187 30.144C203.187 31.232 202.867 32.064 202.227 32.64C201.587 33.216 200.643 33.504 199.395 33.504ZM215.373 60.336C213.165 60.336 211.469 59.824 210.285 58.8C209.101 57.776 208.509 56.288 208.509 54.336C208.509 52.256 209.309 50.624 210.909 49.44C212.509 48.224 214.861 47.504 217.965 47.28L222.189 46.992V44.208C222.189 41.968 221.917 40.416 221.373 39.552C220.861 38.688 219.949 38.256 218.637 38.256C217.741 38.256 216.989 38.496 216.381 38.976C215.805 39.424 215.517 40 215.517 40.704C215.517 41.504 215.869 42.176 216.573 42.72C216.413 43.52 216.029 44.16 215.421 44.64C214.813 45.12 214.077 45.36 213.213 45.36C212.157 45.36 211.277 45.024 210.573 44.352C209.869 43.68 209.517 42.848 209.517 41.856C209.517 40.16 210.317 38.832 211.917 37.872C213.549 36.88 215.789 36.384 218.637 36.384C222.029 36.384 224.589 37.024 226.317 38.304C228.077 39.584 228.957 41.472 228.957 43.968V57.024C229.181 57.28 229.565 57.536 230.109 57.792C230.653 58.016 231.229 58.192 231.837 58.32L231.645 60H223.005L222.525 57.264C221.469 58.32 220.365 59.104 219.213 59.616C218.061 60.096 216.781 60.336 215.373 60.336ZM217.725 57.216C219.197 57.216 220.685 56.336 222.189 54.576V49.344L219.789 49.536C218.029 49.664 216.765 50.064 215.997 50.736C215.229 51.408 214.845 52.432 214.845 53.808C214.845 54.896 215.085 55.744 215.565 56.352C216.077 56.928 216.797 57.216 217.725 57.216ZM234.448 58.032C235.056 57.904 235.52 57.76 235.84 57.6C236.192 57.44 236.576 57.184 236.992 56.832V43.008C236.992 41.856 236.768 41.072 236.32 40.656C235.872 40.208 235.088 39.952 233.968 39.888L234.112 38.016L235.696 37.728C239.088 37.152 241.296 36.704 242.32 36.384L243.184 36.816L243.568 39.984C244.304 38.896 245.2 38.032 246.256 37.392C247.312 36.752 248.48 36.432 249.76 36.432C251.008 36.432 252.08 36.864 252.976 37.728C253.904 38.56 254.368 39.6 254.368 40.848C254.368 42 254.032 42.912 253.36 43.584C252.72 44.224 251.968 44.544 251.104 44.544C250.112 44.544 249.328 44.144 248.752 43.344C249.2 42.8 249.424 42.272 249.424 41.76C249.424 41.248 249.2 40.832 248.752 40.512C248.336 40.192 247.856 40.032 247.312 40.032C246.64 40.032 245.968 40.32 245.296 40.896C244.656 41.44 244.144 42.16 243.76 43.056V56.832C244.496 57.408 245.456 57.84 246.64 58.128L246.448 60H234.304L234.448 58.032Z" fill="#D9ECFF"/>
<g filter="url(#filter0_d_5_1086)">
<rect x="39" y="20" width="48.96" height="48.96" rx="12.24" fill="#7F56D9"/>
<g clip-path="url(#clip0_5_1086)">
<path d="M66.3399 54.41H60.0399L59.2899 52.385H47.9649V33.11C47.9649 32.21 48.7149 31.46 49.6149 31.46H77.6649C78.5649 31.46 79.3149 32.21 79.3149 33.11V52.46H67.8399L66.3399 54.41ZM60.8649 53.285H65.8149L67.3149 51.26H78.1899V33.11C78.1899 32.81 77.9649 32.585 77.6649 32.585H49.6149C49.3149 32.585 49.0899 32.81 49.0899 33.11V51.335H60.1149L60.8649 53.285Z" fill="white"/>
<path d="M76.2399 56.6601H51.0399C48.3399 56.6601 46.1649 54.4851 46.1649 51.7851V51.1851H60.0399L60.7899 53.2101H65.7399L67.2399 51.1851H81.0399V51.7851C81.1149 54.4851 78.8649 56.6601 76.2399 56.6601ZM47.3649 52.3851C47.6649 54.1851 49.1649 55.5351 51.0399 55.5351H76.1649C78.0399 55.5351 79.6149 54.1851 79.8399 52.3851H67.8399L66.3399 54.4101H60.0399L59.2899 52.3851H47.3649Z" fill="white"/>
<path d="M58.1649 35.4351H52.3899V40.4601H58.1649V35.4351Z" fill="white"/>
<path d="M58.6899 40.985H51.7899V34.835H58.6899V40.985ZM52.9149 39.86H57.5649V35.96H52.9149V39.86Z" fill="white"/>
<path d="M58.1649 43.385H52.3899V48.41H58.1649V43.385Z" fill="white"/>
<path d="M58.6899 49.0101H51.7899V42.8601H58.6899V49.0101ZM52.9149 47.8851H57.5649V43.9851H52.9149V47.8851Z" fill="white"/>
<path d="M75.1899 37.3101H61.7649V38.4351H75.1899V37.3101Z" fill="white"/>
<path d="M75.1899 45.335H61.7649V46.46H75.1899V45.335Z" fill="white"/>
</g>
</g>
<defs>
<filter id="filter0_d_5_1086" x="0.75" y="0.110001" width="125.46" height="125.46" filterUnits="userSpaceOnUse" color-interpolation-filters="sRGB">
<feFlood flood-opacity="0" result="BackgroundImageFix"/>
<feColorMatrix in="SourceAlpha" type="matrix" values="0 0 0 0 0 0 0 0 0 0 0 0 0 0 0 0 0 0 127 0" result="hardAlpha"/>
<feOffset dy="18.36"/>
<feGaussianBlur stdDeviation="19.125"/>
<feComposite in2="hardAlpha" operator="out"/>
<feColorMatrix type="matrix" values="0 0 0 0 0.0509804 0 0 0 0 0.0470588 0 0 0 0 0.219608 0 0 0 0.15 0"/>
<feBlend mode="normal" in2="BackgroundImageFix" result="effect1_dropShadow_5_1086"/>
<feBlend mode="normal" in="SourceGraphic" in2="effect1_dropShadow_5_1086" result="shape"/>
</filter>
<clipPath id="clip0_5_1086">
<rect width="36" height="36" fill="white" transform="translate(45.6399 26.0601)"/>
</clipPath>
</defs>
</svg>
