<svg width="22" height="24" viewBox="0 0 22 24" fill="none" xmlns="http://www.w3.org/2000/svg">
<path d="M7.62499 16.6667H4.07607C3.22915 16.6667 2.80569 16.6667 2.46749 16.7928C1.92416 16.9956 1.49558 17.4242 1.29285 17.9675C1.16666 18.3057 1.16666 18.7291 1.16666 19.5761V19.5761C1.16666 20.5873 1.16666 21.0929 1.3261 21.4679C1.58259 22.0712 2.11843 22.5105 2.76029 22.6437C3.15929 22.7265 3.65508 22.6273 4.64666 22.429L5.02912 22.3525C5.96791 22.1647 6.43731 22.0709 6.78613 21.8221C7.07515 21.6161 7.30411 21.3368 7.4495 21.0129C7.62499 20.6221 7.62499 20.1434 7.62499 19.186V7.02921C7.62499 5.45945 7.62499 4.67458 8.07831 4.12162C8.53162 3.56866 9.30126 3.41474 10.8405 3.10688L15.7572 2.12355C17.9708 1.68083 19.0776 1.45947 19.8096 2.05958C20.5417 2.65969 20.5417 3.78842 20.5417 6.04587V7.62499M20.5417 14.0833V16.6027C20.5417 17.5601 20.5417 18.0388 20.3662 18.4296C20.2208 18.7534 19.9918 19.0327 19.7028 19.2388C19.354 19.4875 18.8846 19.5814 17.9458 19.7692L17.5633 19.8457C16.5717 20.044 16.076 20.1431 15.677 20.0603C15.0351 19.9271 14.4993 19.4879 14.2428 18.8846C14.0833 18.5096 14.0833 18.004 14.0833 16.9927V16.9927C14.0833 16.1458 14.0833 15.7224 14.2095 15.3842C14.4122 14.8408 14.8408 14.4122 15.3842 14.2095C15.7224 14.0833 16.1458 14.0833 16.9927 14.0833H20.5417ZM20.5417 14.0833V7.62499M20.5417 7.62499L7.62499 10.2083" stroke="white" stroke-width="2"/>
</svg>
