<svg width="260" height="27" viewBox="0 0 260 27" fill="none" xmlns="http://www.w3.org/2000/svg">
<path d="M216.306 26.4654C203.919 26.4654 197.522 21.2429 191.886 16.6556C186.726 12.4564 182.29 8.8218 173.049 8.8218C163.807 8.8218 159.354 12.4564 154.212 16.6556C148.575 21.2605 142.178 26.4654 129.791 26.4654C117.404 26.4654 111.007 21.2429 105.37 16.6556C100.228 12.4564 95.7749 8.8218 86.5332 8.8218C77.2915 8.8218 72.8385 12.4564 67.6963 16.6556C62.0594 21.2605 55.6626 26.4654 43.2755 26.4654C30.8883 26.4654 24.4916 21.2429 18.8546 16.6556C13.6948 12.4564 9.24181 8.8218 6.10352e-05 8.8218V0C12.3872 0 18.784 5.2225 24.4209 9.80984C29.563 14.009 34.016 17.6436 43.2578 17.6436C52.4995 17.6436 56.9525 14.009 62.0947 9.80984C67.7316 5.20486 74.1284 0 86.5155 0C98.9026 0 105.299 5.2225 110.936 9.80984C116.079 14.009 120.532 17.6436 129.773 17.6436C139.015 17.6436 143.468 14.009 148.61 9.80984C154.247 5.20486 160.644 0 173.031 0C185.418 0 191.815 5.2225 197.469 9.80984C202.612 14.009 207.065 17.6436 216.306 17.6436C225.548 17.6436 230.001 14.009 235.143 9.80984C240.78 5.20486 247.177 0 259.582 0V8.8218C250.34 8.8218 245.887 12.4564 240.745 16.6556C235.09 21.2605 228.694 26.4654 216.306 26.4654Z" fill="#F580AF"/>
</svg>
